<?xml version="1.0" encoding="UTF-8"?>
<svg id="Layer_1" xmlns="http://www.w3.org/2000/svg" version="1.1" viewBox="0 0 512 512">
  <!-- Generator: Adobe Illustrator 30.3.0, SVG Export Plug-In . SVG Version: 2.1.3 Build 182)  -->
  <defs>
    <style>
      .st0 {
        fill: #171f34;
      }

      .st1 {
        fill: #015ac2;
      }

      .st2 {
        fill: #27c289;
      }
    </style>
  </defs>
  <rect class="st0" width="512" height="512" rx="96" ry="96"/>
  <polygon class="st1" points="274.3 274.3 256 274.3 237.6 292.7 228.5 301.9 219.3 311 219.3 311 219.3 311 200.9 329.4 200.9 329.4 200.9 329.4 191.8 338.5 182.6 347.7 182.6 347.7 182.6 347.7 164.2 366.1 155.1 375.2 145.9 384.4 145.9 384.4 182.6 384.4 182.6 384.4 191.8 375.2 200.9 366.1 200.9 366.1 200.9 347.7 219.3 329.4 219.3 384.4 219.3 384.4 200.9 402.7 200.9 402.7 109.2 402.7 109.2 311 118.4 301.9 127.6 292.7 127.6 292.7 127.6 292.7 145.9 274.3 145.9 274.3 145.9 274.3 155.1 265.2 164.2 256 164.2 201 164.3 201 191.8 228.5 200.9 237.7 200.9 237.7 219.3 256 200.9 274.3 200.9 256 200.9 256 191.8 246.8 182.6 237.7 182.6 292.7 173.4 301.9 164.3 311 164.2 311 164.2 274.3 127.6 311 127.6 366 145.9 347.7 145.9 347.7 145.9 347.7 155.1 338.5 164.2 329.4 182.6 311 182.6 311 182.6 311 191.8 301.9 200.9 292.7 200.9 292.7 200.9 292.7 219.3 274.3 219.3 274.3 219.3 274.3 228.5 265.2 237.6 256 237.6 237.7 274.3 274.3"/>
  <polygon class="st1" points="274.3 182.6 274.3 201 256 201 246.8 191.8 237.6 182.6 228.5 173.5 219.3 164.3 219.3 164.3 210.1 155.1 200.9 146 200.9 145.9 200.9 145.9 191.8 136.8 182.6 127.6 145.9 127.6 155.1 136.8 164.2 145.9 173.4 155.1 182.6 164.3 182.6 164.3 191.8 173.5 200.9 182.6 200.9 182.6 200.9 182.6 210.1 191.8 219.3 201 219.3 201 228.5 210.1 210.1 228.5 200.9 219.3 200.9 219.3 200.9 219.3 191.8 210.1 182.6 201 182.6 201 173.4 191.8 164.2 182.6 155.1 173.5 145.9 164.3 145.9 164.3 136.7 155.1 127.6 146 127.6 274.3 127.6 274.3 109.2 292.7 109.2 109.3 200.9 109.3 200.9 109.3 210.1 118.4 219.3 127.6 219.3 127.6 228.5 136.8 237.6 145.9 246.8 155.1 256 164.3 256 164.3 274.3 182.6"/>
  <polygon class="st2" points="237.7 237.7 256 237.7 274.4 219.3 283.5 210.1 292.7 201 292.7 201 292.7 201 311.1 182.6 311.1 182.6 311.1 182.6 320.2 173.5 329.4 164.3 329.4 164.3 329.4 164.3 347.8 145.9 356.9 136.8 366.1 127.6 366.1 127.6 329.4 127.6 329.4 127.6 320.2 136.8 311.1 145.9 311.1 145.9 311.1 164.3 292.7 182.6 292.7 127.6 292.7 127.6 311.1 109.3 311.1 109.3 402.8 109.3 402.8 201 393.6 210.1 384.4 219.3 384.4 219.3 384.4 219.3 366.1 237.7 366.1 237.7 366.1 237.7 356.9 246.8 347.8 256 347.8 311 347.7 311 320.2 283.5 311.1 274.3 311.1 274.3 292.7 256 311.1 237.7 311.1 256 311.1 256 320.2 265.2 329.4 274.3 329.4 219.3 338.6 210.1 347.7 201 347.8 201 347.8 237.7 384.4 201 384.4 146 366.1 164.3 366.1 164.3 366.1 164.3 356.9 173.5 347.8 182.6 329.4 201 329.4 201 329.4 201 320.2 210.1 311.1 219.3 311.1 219.3 311.1 219.3 292.7 237.7 292.7 237.7 292.7 237.7 283.5 246.8 274.4 256 274.4 274.3 237.7 237.7"/>
  <polygon class="st2" points="237.7 329.4 237.7 311 256 311 265.2 320.2 274.4 329.4 283.5 338.5 292.7 347.7 292.7 347.7 301.9 356.9 311.1 366 311.1 366.1 311.1 366.1 320.2 375.2 329.4 384.4 366.1 384.4 356.9 375.2 347.8 366.1 338.6 356.9 329.4 347.7 329.4 347.7 320.2 338.5 311.1 329.4 311.1 329.4 311.1 329.4 301.9 320.2 292.7 311 292.7 311 283.5 301.9 301.9 283.5 311.1 292.7 311.1 292.7 311.1 292.7 320.2 301.9 329.4 311 329.4 311 338.6 320.2 347.8 329.4 356.9 338.5 366.1 347.7 366.1 347.7 375.3 356.9 384.4 366 384.4 237.7 384.4 237.7 402.8 219.3 402.8 402.7 311.1 402.7 311.1 402.7 301.9 393.6 292.7 384.4 292.7 384.4 283.5 375.2 274.4 366.1 265.2 356.9 256 347.7 256 347.7 237.7 329.4"/>
</svg>